<svg width="194" height="52" viewBox="0 0 194 52" fill="none" xmlns="http://www.w3.org/2000/svg">
<rect width="194" height="52" fill=""/>
<path d="M21.622 41L18.528 36.674V41H15.784V31.13H18.528V35.386L21.594 31.13H24.758L21.132 35.918L24.94 41H21.622ZM32.1862 39.39H28.6862L28.1542 41H25.2702L28.8682 31.13H32.0322L35.6162 41H32.7182L32.1862 39.39ZM31.5002 37.29L30.4362 34.098L29.3862 37.29H31.5002ZM28.9522 30.262C28.6349 30.262 28.3689 30.1593 28.1542 29.954C27.9489 29.7393 27.8462 29.4733 27.8462 29.156C27.8462 28.8293 27.9489 28.5587 28.1542 28.344C28.3689 28.1293 28.6349 28.022 28.9522 28.022C29.2789 28.022 29.5495 28.1293 29.7642 28.344C29.9789 28.5587 30.0862 28.8293 30.0862 29.156C30.0862 29.4733 29.9789 29.7393 29.7642 29.954C29.5495 30.1593 29.2789 30.262 28.9522 30.262ZM31.9342 30.262C31.6169 30.262 31.3509 30.1593 31.1362 29.954C30.9309 29.7393 30.8282 29.4733 30.8282 29.156C30.8282 28.8293 30.9309 28.5587 31.1362 28.344C31.3509 28.1293 31.6169 28.022 31.9342 28.022C32.2515 28.022 32.5175 28.1293 32.7322 28.344C32.9469 28.5587 33.0542 28.8293 33.0542 29.156C33.0542 29.4733 32.9469 29.7393 32.7322 29.954C32.5175 30.1593 32.2515 30.262 31.9342 30.262ZM41.5086 41L39.5486 37.36H39.2546V41H36.5106V31.13H40.8366C41.6299 31.13 42.3019 31.27 42.8526 31.55C43.4032 31.8207 43.8186 32.1987 44.0986 32.684C44.3786 33.16 44.5186 33.6967 44.5186 34.294C44.5186 34.966 44.3319 35.5587 43.9586 36.072C43.5946 36.576 43.0579 36.9353 42.3486 37.15L44.5746 41H41.5086ZM39.2546 35.484H40.6126C40.9859 35.484 41.2659 35.3953 41.4526 35.218C41.6392 35.0407 41.7326 34.784 41.7326 34.448C41.7326 34.1307 41.6346 33.8833 41.4386 33.706C41.2519 33.5193 40.9766 33.426 40.6126 33.426H39.2546V35.484ZM45.4304 36.044C45.4304 35.0733 45.6311 34.21 46.0324 33.454C46.4431 32.6887 47.0218 32.096 47.7684 31.676C48.5151 31.2467 49.3738 31.032 50.3444 31.032C51.5764 31.032 52.6124 31.3633 53.4524 32.026C54.2924 32.6793 54.8338 33.5707 55.0764 34.7H52.1224C51.9451 34.3267 51.6978 34.042 51.3804 33.846C51.0724 33.65 50.7131 33.552 50.3024 33.552C49.6678 33.552 49.1591 33.7807 48.7764 34.238C48.4031 34.686 48.2164 35.288 48.2164 36.044C48.2164 36.8093 48.4031 37.4207 48.7764 37.878C49.1591 38.326 49.6678 38.55 50.3024 38.55C50.7131 38.55 51.0724 38.452 51.3804 38.256C51.6978 38.06 51.9451 37.7753 52.1224 37.402H55.0764C54.8338 38.5313 54.2924 39.4273 53.4524 40.09C52.6124 40.7433 51.5764 41.07 50.3444 41.07C49.3738 41.07 48.5151 40.86 47.7684 40.44C47.0218 40.0107 46.4431 39.418 46.0324 38.662C45.6311 37.8967 45.4304 37.024 45.4304 36.044ZM65.2098 31.13V41H62.4658V37.038H59.1198V41H56.3758V31.13H59.1198V34.84H62.4658V31.13H65.2098ZM69.5241 33.328V34.938H72.6741V37.024H69.5241V38.802H73.0941V41H66.7801V31.13H73.0941V33.328H69.5241ZM79.448 41L77.488 37.36H77.194V41H74.45V31.13H78.776C79.5693 31.13 80.2413 31.27 80.792 31.55C81.3427 31.8207 81.758 32.1987 82.038 32.684C82.318 33.16 82.458 33.6967 82.458 34.294C82.458 34.966 82.2713 35.5587 81.898 36.072C81.534 36.576 80.9973 36.9353 80.288 37.15L82.514 41H79.448ZM77.194 35.484H78.552C78.9253 35.484 79.2053 35.3953 79.392 35.218C79.5787 35.0407 79.672 34.784 79.672 34.448C79.672 34.1307 79.574 33.8833 79.378 33.706C79.1913 33.5193 78.916 33.426 78.552 33.426H77.194V35.484ZM86.0496 36.044C86.0496 35.0733 86.2502 34.21 86.6516 33.454C87.0622 32.6887 87.6409 32.096 88.3876 31.676C89.1342 31.2467 89.9929 31.032 90.9636 31.032C92.1956 31.032 93.2316 31.3633 94.0716 32.026C94.9116 32.6793 95.4529 33.5707 95.6956 34.7H92.7416C92.5642 34.3267 92.3169 34.042 91.9996 33.846C91.6916 33.65 91.3322 33.552 90.9216 33.552C90.2869 33.552 89.7782 33.7807 89.3956 34.238C89.0222 34.686 88.8356 35.288 88.8356 36.044C88.8356 36.8093 89.0222 37.4207 89.3956 37.878C89.7782 38.326 90.2869 38.55 90.9216 38.55C91.3322 38.55 91.6916 38.452 91.9996 38.256C92.3169 38.06 92.5642 37.7753 92.7416 37.402H95.6956C95.4529 38.5313 94.9116 39.4273 94.0716 40.09C93.2316 40.7433 92.1956 41.07 90.9636 41.07C89.9929 41.07 89.1342 40.86 88.3876 40.44C87.6409 40.0107 87.0622 39.418 86.6516 38.662C86.2502 37.8967 86.0496 37.024 86.0496 36.044ZM99.7389 33.328V34.938H102.889V37.024H99.7389V38.802H103.309V41H96.9949V31.13H103.309V33.328H99.7389ZM113.807 41H111.063L107.409 35.484V41H104.665V31.13H107.409L111.063 36.716V31.13H113.807V41ZM122.804 31.13V33.314H120.172V41H117.428V33.314H114.824V31.13H122.804ZM126.563 33.328V34.938H129.713V37.024H126.563V38.802H130.133V41H123.819V31.13H130.133V33.328H126.563ZM136.487 41L134.527 37.36H134.233V41H131.489V31.13H135.815C136.608 31.13 137.28 31.27 137.831 31.55C138.382 31.8207 138.797 32.1987 139.077 32.684C139.357 33.16 139.497 33.6967 139.497 34.294C139.497 34.966 139.31 35.5587 138.937 36.072C138.573 36.576 138.036 36.9353 137.327 37.15L139.553 41H136.487ZM134.233 35.484H135.591C135.964 35.484 136.244 35.3953 136.431 35.218C136.618 35.0407 136.711 34.784 136.711 34.448C136.711 34.1307 136.613 33.8833 136.417 33.706C136.23 33.5193 135.955 33.426 135.591 33.426H134.233V35.484ZM145.287 32.558V35.414H148.647V36.716H145.287V39.698H149.067V41H143.691V31.256H149.067V32.558H145.287ZM156.086 41L153.846 37.108H152.628V41H151.032V31.27H154.392C155.139 31.27 155.769 31.4007 156.282 31.662C156.805 31.9233 157.192 32.2733 157.444 32.712C157.706 33.1507 157.836 33.6407 157.836 34.182C157.836 34.8167 157.65 35.3953 157.276 35.918C156.912 36.4313 156.348 36.7813 155.582 36.968L157.99 41H156.086ZM152.628 35.834H154.392C154.99 35.834 155.438 35.6847 155.736 35.386C156.044 35.0873 156.198 34.686 156.198 34.182C156.198 33.678 156.049 33.286 155.75 33.006C155.452 32.7167 154.999 32.572 154.392 32.572H152.628V35.834ZM166.682 34.168C166.682 34.6627 166.565 35.1293 166.332 35.568C166.099 36.0067 165.725 36.366 165.212 36.646C164.699 36.9167 164.041 37.052 163.238 37.052H161.474V41H159.878V31.27H163.238C163.985 31.27 164.615 31.4007 165.128 31.662C165.651 31.914 166.038 32.2593 166.29 32.698C166.551 33.1367 166.682 33.6267 166.682 34.168ZM163.238 35.75C163.845 35.75 164.297 35.6147 164.596 35.344C164.895 35.064 165.044 34.672 165.044 34.168C165.044 33.104 164.442 32.572 163.238 32.572H161.474V35.75H163.238ZM169.8 31.27V41H168.204V31.27H169.8ZM176.362 36.142L179.386 41H177.594L175.396 37.472L173.338 41H171.56L174.584 36.142L171.546 31.27H173.338L175.55 34.826L177.622 31.27H179.4L176.362 36.142Z" fill="#282828"/>
</svg>